<svg width="600" height="500" viewBox="0 0 600 500" fill="none" xmlns="http://www.w3.org/2000/svg">
  <!-- Background -->
  <rect width="600" height="500" fill="#F8FAFC"/>
  
  <!-- Main Dashboard Container -->
  <rect x="50" y="80" width="500" height="320" rx="20" fill="white" stroke="#E2E8F0" stroke-width="2"/>
  
  <!-- Header Bar -->
  <rect x="50" y="80" width="500" height="50" rx="20" fill="#37C2CC" opacity="0.1"/>
  <circle cx="80" cy="105" r="8" fill="#37C2CC"/>
  <circle cx="100" cy="105" r="8" fill="#37C2CC" opacity="0.6"/>
  <circle cx="120" cy="105" r="8" fill="#37C2CC" opacity="0.3"/>
  
  <!-- Sidebar -->
  <rect x="70" y="150" width="120" height="200" rx="10" fill="#F1F5F9"/>
  <rect x="85" y="170" width="90" height="12" rx="6" fill="#37C2CC" opacity="0.7"/>
  <rect x="85" y="190" width="70" height="8" rx="4" fill="#94A3B8"/>
  <rect x="85" y="210" width="90" height="12" rx="6" fill="#37C2CC" opacity="0.5"/>
  <rect x="85" y="230" width="70" height="8" rx="4" fill="#94A3B8"/>
  <rect x="85" y="250" width="90" height="12" rx="6" fill="#37C2CC" opacity="0.5"/>
  <rect x="85" y="270" width="70" height="8" rx="4" fill="#94A3B8"/>
  <rect x="85" y="290" width="90" height="12" rx="6" fill="#37C2CC" opacity="0.5"/>
  <rect x="85" y="310" width="70" height="8" rx="4" fill="#94A3B8"/>
  
  <!-- Main Content Area -->
  <rect x="210" y="150" width="320" height="80" rx="10" fill="#F1F5F9"/>
  <rect x="230" y="170" width="80" height="40" rx="8" fill="#37C2CC"/>
  <rect x="330" y="170" width="80" height="40" rx="8" fill="#10B981"/>
  <rect x="430" y="170" width="80" height="40" rx="8" fill="#F59E0B"/>
  
  <!-- Chart Area -->
  <rect x="210" y="250" width="150" height="100" rx="10" fill="#F1F5F9"/>
  <path d="M230 320 L250 300 L270 310 L290 280 L310 290 L330 270" stroke="#37C2CC" stroke-width="3" fill="none"/>
  <circle cx="250" cy="300" r="3" fill="#37C2CC"/>
  <circle cx="270" cy="310" r="3" fill="#37C2CC"/>
  <circle cx="290" cy="280" r="3" fill="#37C2CC"/>
  <circle cx="310" cy="290" r="3" fill="#37C2CC"/>
  <circle cx="330" cy="270" r="3" fill="#37C2CC"/>
  
  <!-- Data Cards -->
  <rect x="380" y="250" width="150" height="45" rx="8" fill="#F1F5F9"/>
  <rect x="395" y="265" width="20" height="15" rx="3" fill="#37C2CC"/>
  <text x="425" y="275" font-family="Arial" font-size="12" fill="#1E293B">Analytics Dashboard</text>
  
  <rect x="380" y="305" width="150" height="45" rx="8" fill="#F1F5F9"/>
  <rect x="395" y="320" width="20" height="15" rx="3" fill="#10B981"/>
  <text x="425" y="330" font-family="Arial" font-size="12" fill="#1E293B">Performance Metrics</text>
  
  <!-- Floating Elements -->
  <circle cx="480" cy="120" r="15" fill="#37C2CC" opacity="0.2"/>
  <circle cx="520" cy="140" r="10" fill="#10B981" opacity="0.2"/>
  <circle cx="500" cy="180" r="12" fill="#F59E0B" opacity="0.2"/>
  
  <!-- Connection Lines -->
  <path d="M480 120 Q500 130 520 140" stroke="#37C2CC" stroke-width="2" opacity="0.3" fill="none"/>
  <path d="M500 180 Q510 160 520 140" stroke="#10B981" stroke-width="2" opacity="0.3" fill="none"/>
  
  <!-- Decorative Elements -->
  <rect x="100" y="420" width="400" height="4" rx="2" fill="#E2E8F0"/>
  <rect x="150" y="430" width="300" height="2" rx="1" fill="#E2E8F0"/>
  
  <!-- Tech Icons -->
  <g transform="translate(120, 380)">
    <rect width="20" height="20" rx="4" fill="#37C2CC" opacity="0.7"/>
    <text x="10" y="14" font-family="Arial" font-size="10" fill="white" text-anchor="middle">A</text>
  </g>
  
  <g transform="translate(150, 380)">
    <rect width="20" height="20" rx="4" fill="#10B981" opacity="0.7"/>
    <text x="10" y="14" font-family="Arial" font-size="10" fill="white" text-anchor="middle">B</text>
  </g>
  
  <g transform="translate(180, 380)">
    <rect width="20" height="20" rx="4" fill="#F59E0B" opacity="0.7"/>
    <text x="10" y="14" font-family="Arial" font-size="10" fill="white" text-anchor="middle">C</text>
  </g>
  
  <!-- Success Indicators -->
  <circle cx="450" cy="380" r="8" fill="#10B981"/>
  <path d="M447 377 L449 379 L453 375" stroke="white" stroke-width="2" fill="none"/>
  
  <circle cx="480" cy="380" r="8" fill="#10B981"/>
  <path d="M477 377 L479 379 L483 375" stroke="white" stroke-width="2" fill="none"/>
  
  <circle cx="510" cy="380" r="8" fill="#F59E0B"/>
  <path d="M507 377 L509 379 L513 375" stroke="white" stroke-width="2" fill="none"/>
</svg>