<svg width="32" height="32" viewBox="0 0 32 32" fill="none" xmlns="http://www.w3.org/2000/svg">
  <defs>
    <linearGradient id="gradient1" x1="0%" y1="0%" x2="100%" y2="100%">
      <stop offset="0%" style="stop-color:#6366f1;stop-opacity:1" />
      <stop offset="100%" style="stop-color:#4f46e5;stop-opacity:1" />
    </linearGradient>
    <linearGradient id="gradient2" x1="0%" y1="0%" x2="100%" y2="100%">
      <stop offset="0%" style="stop-color:#06b6d4;stop-opacity:1" />
      <stop offset="100%" style="stop-color:#0891b2;stop-opacity:1" />
    </linearGradient>
  </defs>
  
  <!-- Background circle -->
  <circle cx="16" cy="16" r="16" fill="url(#gradient1)"/>
  
  <!-- Main cube icon -->
  <g transform="translate(8, 8)">
    <!-- Cube front face -->
    <rect x="2" y="6" width="8" height="8" fill="white" opacity="0.9"/>
    
    <!-- Cube top face -->
    <polygon points="2,6 6,2 14,2 10,6" fill="white" opacity="0.7"/>
    
    <!-- Cube right face -->
    <polygon points="10,6 14,2 14,10 10,14" fill="white" opacity="0.5"/>
    
    <!-- Cube edges -->
    <line x1="2" y1="6" x2="6" y2="2" stroke="white" stroke-width="0.5" opacity="0.8"/>
    <line x1="6" y1="2" x2="14" y2="2" stroke="white" stroke-width="0.5" opacity="0.8"/>
    <line x1="14" y1="2" x2="10" y2="6" stroke="white" stroke-width="0.5" opacity="0.8"/>
    <line x1="10" y1="6" x2="2" y2="6" stroke="white" stroke-width="0.5" opacity="0.8"/>
    <line x1="2" y1="6" x2="2" y2="14" stroke="white" stroke-width="0.5" opacity="0.8"/>
    <line x1="2" y1="14" x2="10" y2="14" stroke="white" stroke-width="0.5" opacity="0.8"/>
    <line x1="10" y1="14" x2="10" y2="6" stroke="white" stroke-width="0.5" opacity="0.8"/>
    <line x1="10" y1="6" x2="14" y2="10" stroke="white" stroke-width="0.5" opacity="0.8"/>
    <line x1="14" y1="10" x2="14" y2="2" stroke="white" stroke-width="0.5" opacity="0.8"/>
    <line x1="6" y1="2" x2="6" y2="10" stroke="white" stroke-width="0.5" opacity="0.8"/>
    <line x1="6" y1="10" x2="2" y2="14" stroke="white" stroke-width="0.5" opacity="0.8"/>
    
    <!-- Highlight dots -->
    <circle cx="4" cy="8" r="0.5" fill="url(#gradient2)"/>
    <circle cx="6" cy="4" r="0.5" fill="url(#gradient2)"/>
    <circle cx="12" cy="4" r="0.5" fill="url(#gradient2)"/>
    <circle cx="10" cy="8" r="0.5" fill="url(#gradient2)"/>
  </g>
  
  <!-- Subtle glow effect -->
  <circle cx="16" cy="16" r="14" fill="none" stroke="white" stroke-width="0.5" opacity="0.3"/>
</svg>